<mxfile host="app.diagrams.net" modified="2024-04-16T09:38:04.816Z" agent="Mozilla/5.0 (Macintosh; Intel Mac OS X 10_15_7) AppleWebKit/537.36 (KHTML, like Gecko) Chrome/123.0.0.0 Safari/537.36" version="24.2.5" etag="x4SPOp7cI2WVScVFREgt" type="github">
  <diagram name="第 1 页" id="AgZ_52EeUBw8gDMZge0w">
    <mxGraphModel>
      <root>
        <mxCell id="0" />
        <mxCell id="1" parent="0" />
      </root>
    </mxGraphModel>
  </diagram>
</mxfile>
